<svg version="1" xmlns="http://www.w3.org/2000/svg" width="160" height="160" viewBox="0 0 120.000000 120.000000"><path d="M31.9 3.9C19.2 10.2 11.1 18.4 5.5 30.5 1.3 39.6 0 45.9 0 57.8.1 92.7 22.4 118 53.1 118c9.9 0 19.4-1.9 28.3-5.7 24.7-10.4 38.6-31 38.6-57.4C120 25.7 101.4 4 76.5 4c-7.7 0-15.2 1.4-20.2 3.7-3.3 1.6-3.8 2.2-3.8 5.3 0 4.8 3.4 6 10.8 3.7 13.2-4.2 26.4-1.1 34.7 8 8.5 9.3 11.4 18.4 10.8 33.5-.3 9.5-.7 10.9-4.2 18.3-8.4 17.3-24.7 28.1-45.7 30.5-22.2 2.5-40.1-10.9-46.5-34.9-1.8-6.7-2-20.7-.4-27.6 3-13.4 12.5-25.1 24.7-30.7 7.4-3.3 9.2-5.8 6.8-9.4-1.9-2.9-6.3-3.2-11.6-.5z"/><path d="M69.8 23.1c-2.2 1.2-2.3 4.1-.2 8 .8 1.7 1.4 3.2 1.2 3.4-.2.1-1.8 1-3.6 1.9-2.8 1.5-3.3 2.2-3 4.8.2 1.7 1.1 3.6 2 4.2 1.7 1 2.5.8 8.9-1.8 1.1-.5 2 .4 3.2 2.9 1.5 3.2 2.1 3.6 4.9 3.3 1.7-.2 3.6-1.1 4.2-2 1-1.7.8-2.5-1.8-8.9-.5-1.1.4-2 2.9-3.2 3.2-1.5 3.6-2.1 3.3-4.9-.2-1.7-1.1-3.6-2-4.2-1.7-1-2.5-.8-8.9 1.8-1.1.5-2-.4-3.2-2.9-1.8-3.7-4.4-4.5-7.9-2.4zM34.6 31.8l-2.8 1.7.7 13.8c.3 7.6.8 14.8 1 16 .3 1.6-.3 2.6-2.5 3.9-4.6 2.6-3.5 9.8 1.4 9.8 2.2 0 2.3.4 3 9.2.9 12.4 2.5 14 9.5 9.7l3.4-2-.6-6.2c-.4-3.4-.9-8.5-1.3-11.2l-.6-5.1 5.1-2.4 5.2-2.4 5.7 5.7c9.1 8.9 13.6 9.6 20.5 2.9 6.4-6.2 4.1-12.3-3.5-9.1-3.1 1.3-3.1 1.3-11.2-7.2-4.5-4.7-11.7-13.1-16.1-18.7-8.8-11.1-10.8-12.1-16.9-8.4zm13.3 26.8c-2 2.4-3.6 1.5-4.3-2.4-1-6.3-.7-6.6 2.4-2.7 2.3 2.9 2.8 4.1 1.9 5.1z"/></svg>